<svg width="53" height="51" viewBox="0 0 53 51" fill="none" xmlns="http://www.w3.org/2000/svg">
<path d="M17.876 1.764C19.5987 1.764 21.0267 1.968 22.16 2.376C23.2933 2.73866 24.2227 3.21466 24.948 3.804C25.5373 4.25733 26.0133 4.756 26.376 5.3C26.7387 5.844 27.0107 6.388 27.192 6.932C27.3733 7.476 27.464 7.99733 27.464 8.496C27.464 9.62933 27.056 10.5133 26.24 11.148C25.4693 11.7827 24.608 12.1 23.656 12.1C22.7493 12.1 21.9333 11.8053 21.208 11.216C20.4827 10.6267 20.12 9.788 20.12 8.7C20.12 7.70266 20.46 6.864 21.14 6.184C21.82 5.45866 22.6813 5.05066 23.724 4.96C23.5427 4.37066 22.976 3.872 22.024 3.464C21.1173 3.01066 19.9613 2.784 18.556 2.784C16.244 2.784 14.34 3.48666 12.844 4.892C11.3933 6.252 10.668 8.24666 10.668 10.876C10.668 12.1453 10.8947 13.4373 11.348 14.752C11.8467 16.0667 12.776 17.3587 14.136 18.628C14.9067 18.492 15.7 18.4013 16.516 18.356C17.332 18.2653 17.944 18.22 18.352 18.22C19.168 18.22 19.8253 18.356 20.324 18.628C20.8227 18.9 21.072 19.2853 21.072 19.784C21.072 20.192 20.8907 20.5093 20.528 20.736C20.2107 20.9627 19.7573 21.076 19.168 21.076C18.3067 21.076 17.4 20.8947 16.448 20.532C15.496 20.124 14.748 19.8067 14.204 19.58C11.5747 20.3507 9.444 21.62 7.812 23.388C6.18 25.1107 5.364 27.5587 5.364 30.732C5.364 33.86 6.18 36.512 7.812 38.688C9.444 40.864 11.62 42.5413 14.34 43.72C17.1053 44.8533 20.188 45.42 23.588 45.42C25.9907 45.42 28.2573 45.148 30.388 44.604C32.564 44.0147 34.468 43.176 36.1 42.088C37.7773 41 39.092 39.708 40.044 38.212C40.996 36.6707 41.472 34.9253 41.472 32.976C41.472 32.1147 41.2907 31.0267 40.928 29.712C40.5653 28.352 39.8173 27.0373 38.684 25.768C37.5507 24.4533 35.8053 23.4333 33.448 22.708L34.264 22.028C37.5733 23.0253 39.9307 24.6347 41.336 26.856C42.7413 29.032 43.444 31.48 43.444 34.2C43.444 36.92 42.628 39.5267 40.996 42.02C39.364 44.5133 37.0067 46.5533 33.924 48.14C30.8413 49.6813 27.1013 50.452 22.704 50.452C19.7573 50.452 16.9467 50.0667 14.272 49.296C11.6427 48.5253 9.308 47.4147 7.268 45.964C5.228 44.468 3.61867 42.6773 2.44 40.592C1.26133 38.5067 0.672 36.1493 0.672 33.52C0.672 31.072 1.148 28.9867 2.1 27.264C3.052 25.496 4.23067 24.0453 5.636 22.912C7.04133 21.7787 8.44667 20.9173 9.852 20.328C11.2573 19.6933 12.3907 19.2627 13.252 19.036C11.756 18.356 10.4867 17.5627 9.444 16.656C8.44667 15.704 7.676 14.684 7.132 13.596C6.63333 12.4627 6.384 11.352 6.384 10.264C6.384 9.176 6.63333 8.13333 7.132 7.136C7.63067 6.09333 8.356 5.164 9.308 4.348C10.26 3.532 11.4387 2.89733 12.844 2.444C14.2947 1.99066 15.972 1.764 17.876 1.764ZM42.628 0.403996C45.4387 0.403996 47.796 1.22 49.7 2.852C51.604 4.43866 52.556 6.68267 52.556 9.584C52.556 11.1253 52.2613 12.508 51.672 13.732C51.128 14.9107 50.3573 15.9533 49.36 16.86C48.408 17.7667 47.32 18.5147 46.096 19.104C45.0533 19.6027 43.6707 20.1467 41.948 20.736C40.2707 21.3253 38.4573 21.9147 36.508 22.504C34.604 23.0933 32.768 23.6827 31 24.272C29.2773 24.816 27.872 25.292 26.784 25.7C25.1067 26.3347 23.6787 27.128 22.5 28.08C21.3667 28.9867 20.8 30.1653 20.8 31.616C20.8 32.7947 21.14 33.792 21.82 34.608C22.5 35.424 23.316 36.036 24.268 36.444C25.2653 36.852 26.1947 37.056 27.056 37.056C27.464 37.056 27.9627 37.0107 28.552 36.92C29.1867 36.784 29.7533 36.6027 30.252 36.376C30.7507 36.1493 31.0453 35.8773 31.136 35.56C30.4107 35.424 29.6853 35.1067 28.96 34.608C28.28 34.064 27.94 33.2253 27.94 32.092C27.94 31.004 28.3027 30.1427 29.028 29.508C29.7533 28.8733 30.6373 28.556 31.68 28.556C32.768 28.556 33.6293 28.896 34.264 29.576C34.944 30.256 35.284 31.14 35.284 32.228C35.284 33.4973 34.8533 34.5853 33.992 35.492C33.176 36.3533 32.1333 37.0107 30.864 37.464C29.64 37.872 28.416 38.076 27.192 38.076C25.9227 38.076 24.6307 37.804 23.316 37.26C22.0013 36.716 20.9133 35.8773 20.052 34.744C19.1907 33.5653 18.76 32.024 18.76 30.12C18.76 28.5333 19.1 27.128 19.78 25.904C20.5053 24.68 21.5707 23.592 22.976 22.64C24.3813 21.688 26.104 20.872 28.144 20.192C29.504 19.7387 31.1587 19.24 33.108 18.696C35.0573 18.152 37.052 17.5627 39.092 16.928C41.1773 16.2933 43.0587 15.5907 44.736 14.82C47.0027 13.7773 48.544 12.712 49.36 11.624C50.176 10.536 50.584 9.42533 50.584 8.292C50.584 6.97733 50.2213 5.82133 49.496 4.824C48.7707 3.78133 47.796 2.96533 46.572 2.376C45.3933 1.74133 44.1013 1.424 42.696 1.424C42.152 1.424 41.6987 1.46933 41.336 1.56C40.9733 1.65067 40.7467 1.80933 40.656 2.036C41.2907 2.35333 41.7667 2.80666 42.084 3.396C42.4013 3.98533 42.56 4.57467 42.56 5.164C42.56 6.116 42.1747 6.90933 41.404 7.544C40.6787 8.17866 39.7947 8.496 38.752 8.496C37.8907 8.496 37.0747 8.224 36.304 7.68C35.5333 7.09067 35.148 6.22933 35.148 5.096C35.148 3.91733 35.5333 2.988 36.304 2.308C37.12 1.628 38.0947 1.152 39.228 0.879998C40.4067 0.562663 41.54 0.403996 42.628 0.403996Z" fill="#AC1313"/>
</svg>
