<svg width="158" height="89" viewBox="0 0 158 89" fill="none" xmlns="http://www.w3.org/2000/svg">
<g clip-path="url(#clip0_106_2)">
<path d="M58.5471 21.7103C55.3429 19.4307 52.0755 18.6393 50.4707 18.3733V8.09926L52.829 6.31376C54.2212 6.14896 55.2932 5.19931 55.2932 4.05227V3.08924C55.2932 1.82685 53.9956 0.799835 52.4004 0.799835H15.9512C14.356 0.799835 13.0584 1.82685 13.0584 3.08944V4.05247C13.0584 5.19562 14.1235 6.14295 15.5088 6.31221L17.8693 8.09945V18.3733C16.2645 18.6393 12.9972 19.4307 9.79299 21.7103C5.81938 24.5371 1.18386 30.3023 1.66718 41.7149C2.14218 52.9484 6.58269 62.1919 10.2241 67.9678C13.1241 72.568 15.938 75.7114 17.2939 77.1187C16.7775 77.5113 16.4539 78.0613 16.4539 78.6715C16.4539 79.8598 17.6753 80.8265 19.1767 80.8265H49.1631C50.6645 80.8265 51.8859 79.8598 51.8859 78.6715C51.8859 78.0613 51.5626 77.5111 51.0459 77.1185C52.4021 75.7114 55.2158 72.5678 58.1157 67.9678C61.7571 62.1919 66.1976 52.9486 66.6731 41.7149C67.1564 30.3023 62.5209 24.5371 58.5471 21.7103L58.5471 21.7103ZM15.9512 4.5969C15.5718 4.5969 15.2631 4.3526 15.2631 4.05227V3.08924C15.2631 2.78891 15.5718 2.54462 15.9512 2.54462H52.4006C52.7801 2.54462 53.0887 2.78891 53.0887 3.08924V4.05227C53.0887 4.3526 52.7801 4.5969 52.4006 4.5969H15.9512V4.5969ZM20.074 13.8897V11.4868H48.2663V13.8897H20.074V13.8897ZM48.2663 15.6346V18.242H20.074V15.6346H48.2663ZM20.074 9.74186V7.72661C20.074 7.48832 19.951 7.2607 19.7335 7.09609L18.7375 6.34188H49.6026L48.6068 7.09609C48.3893 7.2607 48.2663 7.48852 48.2663 7.72661V9.74186H20.074V9.74186ZM11.165 23.0806C14.8253 20.4345 18.6427 20.0225 19.0287 19.987H49.3101C49.7091 20.0236 53.5203 20.4386 57.1748 23.0806C59.4236 24.7066 61.1709 26.8543 62.395 29.4649C60.7412 29.8576 59.6712 30.6723 58.707 31.4106C57.4722 32.3567 56.4969 33.1038 54.4128 33.1038C52.3281 33.1038 51.3529 32.3565 50.118 31.4106C48.7815 30.3867 47.2668 29.2261 44.2902 29.2261C41.3136 29.2261 39.7988 30.3867 38.4625 31.4108C37.2278 32.3567 36.2529 33.1038 34.1687 33.1038C32.0845 33.1038 31.1095 32.3566 29.8749 31.4108C28.5386 30.3869 27.0237 29.2261 24.0471 29.2261C21.0708 29.2261 19.5561 30.3865 18.2199 31.4106C16.9852 32.3567 16.0103 33.1038 13.9261 33.1038C11.8419 33.1038 10.8669 32.3565 9.63253 31.4106C8.66883 30.6721 7.59857 29.8581 5.94529 29.4659C7.16866 26.8548 8.91625 24.7068 11.165 23.0806H11.165ZM5.26134 31.1238C6.43767 31.3931 7.22034 31.9909 8.09855 32.6641C9.43484 33.688 10.9495 34.8488 13.9258 34.8488C16.9022 34.8488 18.4168 33.6884 19.7531 32.6642C20.9877 31.7181 21.9629 30.971 24.0469 30.971C26.1313 30.971 27.1065 31.7185 28.3412 32.6642C29.6775 33.6882 31.1921 34.8488 34.1684 34.8488C37.1448 34.8488 38.6594 33.6884 39.9957 32.6642C41.2303 31.7183 42.2056 30.971 44.29 30.971C46.3744 30.971 47.3496 31.7183 48.5843 32.6642C49.9208 33.6882 51.4357 34.8488 54.4125 34.8488C57.3889 34.8488 58.9037 33.6884 60.2403 32.6642C61.1185 31.9913 61.9051 31.3974 63.0802 31.1279C63.7587 33.0105 64.1965 35.0985 64.3888 37.372C62.0841 37.624 60.7628 38.6014 59.5843 39.4821C58.3628 40.3947 57.308 41.183 55.1261 41.183C52.9415 41.183 51.8747 40.3935 50.6393 39.4793C49.2623 38.4603 47.7016 37.3053 44.6464 37.3053C41.5917 37.3053 40.0312 38.4603 38.6545 39.4793C37.4194 40.3935 36.3528 41.183 34.1682 41.183C31.9836 41.183 30.9167 40.3935 29.6816 39.4793C28.3049 38.4603 26.7445 37.3053 23.6897 37.3053C20.635 37.3053 19.0745 38.4603 17.6978 39.4793C16.4627 40.3935 15.3961 41.183 13.2117 41.183C11.0306 41.183 9.97597 40.3949 8.75506 39.4824C7.57652 38.6014 6.25566 37.6244 3.95125 37.3726C4.1438 35.0973 4.58204 33.0078 5.26134 31.1238H5.26134ZM49.1634 79.0816H19.1769C18.8913 79.0816 18.6588 78.8976 18.6588 78.6715C18.6588 78.4454 18.8913 78.2616 19.1769 78.2616H49.1634C49.449 78.2616 49.6815 78.4454 49.6815 78.6715C49.6815 78.8976 49.449 79.0816 49.1634 79.0816ZM48.8425 76.5166H19.4983C18.7529 75.7686 16.7633 73.6781 14.4405 70.4717H53.9187C51.5951 73.6688 49.5916 75.7669 48.8425 76.5166V76.5166ZM55.1403 68.7267H13.2225C12.9173 68.273 12.6091 67.8018 12.3002 67.314H56.0633C55.7544 67.8013 55.4463 68.273 55.1403 68.7267ZM57.1275 65.569H11.2351C8.38761 60.7209 5.63981 54.491 4.44878 47.2437C5.80835 47.4901 6.71228 48.1251 7.71542 48.8429C9.1328 49.8573 10.7395 51.007 13.7203 51.007C16.7189 51.007 18.247 49.8482 19.5949 48.8256C20.8444 47.8779 21.8312 47.1293 23.9445 47.1293C26.0576 47.1293 27.0445 47.8779 28.2941 48.8256C29.6422 49.848 31.1698 51.007 34.1689 51.007C37.1681 51.007 38.6959 49.8482 40.044 48.8254C41.2933 47.8777 42.28 47.1293 44.3929 47.1293C46.5062 47.1293 47.4932 47.8777 48.743 48.8256C50.0913 49.848 51.6192 51.007 54.6188 51.007C57.5993 51.007 59.2073 49.8573 60.6261 48.8433C61.6305 48.1253 62.5295 47.4853 63.8898 47.2391C62.6591 54.7151 59.7949 61.0158 57.1275 65.569V65.569ZM64.4701 41.6565C64.4155 42.9429 64.306 44.2014 64.1519 45.432C61.7975 45.6564 60.3985 46.6547 59.148 47.5483C57.8616 48.4679 56.7507 49.2623 54.6185 49.2623C52.5047 49.2623 51.5177 48.5137 50.2679 47.5659C48.9196 46.5434 47.3918 45.3845 44.3926 45.3845C41.394 45.3845 39.8659 46.5436 38.5183 47.5659C37.2687 48.5137 36.282 49.2623 34.1687 49.2623C32.0556 49.2623 31.0686 48.5137 29.819 47.5659C28.471 46.5436 26.9434 45.3845 23.9442 45.3845C20.9451 45.3845 19.4173 46.5436 18.0692 47.5661C16.8199 48.5139 15.8331 49.2623 13.7203 49.2623C11.5886 49.2623 10.4791 48.4681 9.19429 47.5487C7.94446 46.6541 6.54374 45.6577 4.18691 45.4342C4.03307 44.2016 3.92504 42.9421 3.87066 41.6567C3.83416 40.7916 3.82926 39.9487 3.85302 39.1269C5.34561 39.3411 6.23974 40.0028 7.24165 40.7512C8.60685 41.7719 10.1546 42.9284 13.2122 42.9284C16.267 42.9284 17.8274 41.7734 19.2041 40.7543C20.4393 39.8402 21.5058 39.0507 23.6902 39.0507C25.8746 39.0507 26.9412 39.84 28.1763 40.7541C29.553 41.7734 31.1137 42.9284 34.1687 42.9284C37.2234 42.9284 38.7839 41.7734 40.1606 40.7543C41.3957 39.8402 42.4623 39.0507 44.6467 39.0507C46.8318 39.0507 47.8983 39.8402 49.1337 40.7543C50.5107 41.7734 52.0714 42.9284 55.1261 42.9284C58.184 42.9284 59.7322 41.7719 61.0977 40.7514C62.1008 40.0021 62.9925 39.3374 64.4875 39.1236C64.5115 39.9462 64.5066 40.7902 64.4701 41.6565V41.6565Z" fill="black" stroke="black"/>
<path d="M78.4247 20.0039C80.3935 20.0664 81.6474 20.0977 82.1865 20.0977C82.9208 20.0977 83.7451 20.0782 84.6591 20.0391C85.6279 20.0078 86.2255 19.9922 86.4521 19.9922C87.5458 19.9922 88.4482 20.1055 89.1591 20.3321C89.8779 20.5586 90.4716 20.9727 90.9404 21.5742C91.4091 22.1758 91.6435 22.9024 91.6435 23.7539C91.6435 24.4571 91.4794 25.1367 91.1513 25.793C90.8232 26.4492 90.3661 27.0078 89.7802 27.4688C89.1943 27.9297 88.6005 28.2617 87.999 28.4649C87.3974 28.6602 86.7724 28.7578 86.124 28.7578C85.6396 28.7578 85.1005 28.7032 84.5068 28.5938L84.3076 27.8789L84.413 27.7617C84.999 27.8946 85.4755 27.961 85.8427 27.961C86.8661 27.961 87.6865 27.625 88.3036 26.9532C88.9286 26.2735 89.2411 25.4063 89.2411 24.3516C89.2411 23.2891 88.9169 22.4414 88.2685 21.8086C87.6279 21.1758 86.6552 20.8594 85.3505 20.8594C84.6396 20.8594 83.8583 20.9922 83.0068 21.2578C82.9365 21.8594 82.9013 23.3125 82.9013 25.6172V31.043L82.913 33.3282C82.9208 34.211 82.9443 34.7813 82.9833 35.0391C83.0224 35.2969 83.0771 35.4688 83.1474 35.5547C83.2255 35.6407 83.3701 35.7149 83.581 35.7774C83.7919 35.8321 84.3115 35.875 85.1396 35.9063L85.2333 35.9766V36.5625L85.1396 36.6563C83.1474 36.5938 82.0263 36.5625 81.7763 36.5625C81.5107 36.5625 80.3935 36.5938 78.4247 36.6563L78.331 36.5625V35.9766L78.4247 35.9063C79.1513 35.875 79.6357 35.836 79.8779 35.7891C80.1201 35.7422 80.2802 35.6836 80.3583 35.6133C80.4443 35.5352 80.5107 35.375 80.5576 35.1328C80.6122 34.8907 80.6435 34.3516 80.6513 33.5157L80.663 31.043V25.6172L80.6396 23.3321C80.6318 22.4414 80.6083 21.8672 80.5693 21.6094C80.538 21.3516 80.4833 21.1797 80.4052 21.0938C80.3349 21.0078 80.1943 20.9375 79.9833 20.8828C79.7724 20.8282 79.2529 20.7852 78.4247 20.7539L78.331 20.6719V20.086L78.4247 20.0039ZM93.038 31.1953C93.038 30.2657 93.2294 29.3711 93.6122 28.5117C93.9951 27.6446 94.6591 26.8985 95.6044 26.2735C96.5576 25.6407 97.6865 25.3242 98.9911 25.3242C100.632 25.3242 101.968 25.8438 102.999 26.8828C104.03 27.9141 104.546 29.2422 104.546 30.8672C104.546 32.6563 103.952 34.1289 102.765 35.2852C101.585 36.4414 100.159 37.0196 98.4872 37.0196C97.3935 37.0196 96.4169 36.7266 95.5576 36.1407C94.6982 35.5469 94.0615 34.8242 93.6474 33.9727C93.2411 33.1211 93.038 32.1953 93.038 31.1953ZM95.2529 30.3867C95.2529 31.4805 95.3935 32.461 95.6747 33.3282C95.956 34.1875 96.4013 34.8789 97.0107 35.4024C97.6201 35.9258 98.3154 36.1875 99.0966 36.1875C100.018 36.1875 100.78 35.8242 101.382 35.0977C101.983 34.3633 102.284 33.2617 102.284 31.793C102.284 30.1289 101.956 28.7657 101.3 27.7032C100.651 26.6407 99.7138 26.1094 98.4872 26.1094C97.4716 26.1094 96.6786 26.4766 96.1083 27.211C95.538 27.9453 95.2529 29.0039 95.2529 30.3867ZM120.073 26.2617L119.851 27.2461L119.757 27.3516C119.358 27.3438 118.917 27.3399 118.433 27.3399C117.995 27.3399 117.433 27.3438 116.745 27.3516L116.675 32.1211C116.675 33.2852 116.706 34.0352 116.768 34.3711C116.839 34.7071 116.991 34.9571 117.226 35.1211C117.46 35.2852 117.784 35.3672 118.198 35.3672C118.722 35.3672 119.206 35.2305 119.651 34.9571L119.933 35.3789C119.745 35.5117 119.296 35.9024 118.585 36.5508C118.179 36.7383 117.765 36.8321 117.343 36.8321C115.585 36.8321 114.706 35.9805 114.706 34.2774L114.765 32.2735V27.3516H109.655L109.585 32.1211C109.585 33.2852 109.616 34.0352 109.679 34.3711C109.749 34.7071 109.901 34.9571 110.136 35.1211C110.37 35.2852 110.694 35.3672 111.108 35.3672C111.632 35.3672 112.116 35.2305 112.561 34.9571L112.843 35.3789C112.655 35.5117 112.206 35.9024 111.495 36.5508C111.089 36.7383 110.675 36.8321 110.253 36.8321C108.495 36.8321 107.616 35.9805 107.616 34.2774L107.675 32.2735V27.4102H107.194C106.843 27.4102 106.44 27.4258 105.987 27.4571L105.882 27.3633V27.0586L105.964 26.9414C106.698 26.668 107.292 26.4141 107.745 26.1797C107.745 24.1407 107.722 22.9532 107.675 22.6172C108.479 22.336 109.14 22.0352 109.655 21.7149L109.936 21.9492C109.858 22.4571 109.765 23.8672 109.655 26.1797H114.8C114.8 23.9688 114.788 22.7813 114.765 22.6172C115.569 22.336 116.229 22.0352 116.745 21.7149L117.026 21.9492C116.948 22.4414 116.854 23.8711 116.745 26.2383C117.136 26.2461 117.558 26.25 118.011 26.25C118.933 26.25 119.593 26.2266 119.991 26.1797L120.073 26.2617ZM130.632 34.8399L130.257 35.6836C129.444 36.2071 128.718 36.5469 128.077 36.7032C127.444 36.8594 126.878 36.9375 126.378 36.9375C125.44 36.9375 124.55 36.7539 123.706 36.3867C122.87 36.0196 122.186 35.3985 121.655 34.5235C121.132 33.6485 120.87 32.5938 120.87 31.3594C120.87 30.5391 120.972 29.8008 121.175 29.1446C121.378 28.4805 121.589 27.9883 121.808 27.668C122.034 27.3477 122.413 26.9922 122.944 26.6016C123.476 26.211 124.038 25.8985 124.632 25.6641C125.226 25.4297 125.866 25.3125 126.554 25.3125C127.491 25.3125 128.315 25.5352 129.026 25.9805C129.745 26.418 130.249 26.9805 130.538 27.668C130.827 28.3555 130.972 29.086 130.972 29.8594C130.972 30.1016 130.96 30.336 130.936 30.5625L130.808 30.6914C130.276 30.8086 129.561 30.8867 128.663 30.9258C127.765 30.9649 127.171 30.9844 126.882 30.9844H123.12C123.136 32.6016 123.542 33.793 124.339 34.5586C125.136 35.3242 126.112 35.7071 127.268 35.7071C127.815 35.7071 128.339 35.6133 128.839 35.4258C129.347 35.2383 129.882 34.9766 130.444 34.6407L130.632 34.8399ZM123.12 30.0469C123.261 30.0703 123.8 30.0977 124.737 30.1289C125.683 30.1602 126.382 30.1758 126.835 30.1758C127.921 30.1758 128.581 30.1563 128.815 30.1172C128.823 29.9297 128.827 29.7852 128.827 29.6836C128.827 28.4727 128.581 27.5742 128.089 26.9883C127.597 26.3946 126.925 26.0977 126.073 26.0977C125.143 26.0977 124.417 26.4297 123.893 27.0938C123.378 27.7578 123.12 28.7422 123.12 30.0469ZM136.28 25.3946L136.503 25.5469C136.456 26 136.421 26.8047 136.397 27.961L137.276 26.8477C137.565 26.4805 137.819 26.1992 138.038 26.0039C138.265 25.8008 138.526 25.6446 138.823 25.5352C139.12 25.4258 139.425 25.3711 139.737 25.3711C140.081 25.3711 140.405 25.4414 140.71 25.5821L140.792 25.7461C140.667 26.7852 140.597 27.6992 140.581 28.4883H140.054C139.741 27.7696 139.237 27.4102 138.542 27.4102C138.058 27.4102 137.636 27.5664 137.276 27.8789C136.917 28.1836 136.675 28.5703 136.55 29.0391C136.433 29.5 136.374 30.086 136.374 30.7969V32.0977C136.374 32.3321 136.39 32.9063 136.421 33.8203C136.452 34.7344 136.483 35.2617 136.515 35.4024C136.554 35.543 136.608 35.6485 136.679 35.7188C136.757 35.7813 136.854 35.8242 136.972 35.8477C137.097 35.8711 137.655 35.9102 138.647 35.9649L138.753 36.0586V36.5508L138.647 36.6563C137.608 36.5938 136.522 36.5625 135.39 36.5625C134.491 36.5625 133.554 36.5938 132.577 36.6563L132.472 36.5508V36.0586L132.577 35.9649C133.335 35.918 133.761 35.8828 133.854 35.8594C133.956 35.836 134.042 35.7891 134.112 35.7188C134.19 35.6407 134.241 35.5274 134.265 35.3789C134.296 35.2227 134.327 34.7188 134.358 33.8672C134.397 33.0078 134.417 32.3594 134.417 31.9219V29.6133C134.417 29.3008 134.401 28.875 134.37 28.336C134.339 27.7969 134.311 27.4649 134.288 27.3399C134.272 27.2149 134.214 27.125 134.112 27.0703C134.011 27.0078 133.808 26.9766 133.503 26.9766L132.518 26.9649L132.413 26.8711V26.3672L132.507 26.2735C133.999 26.0938 135.257 25.8008 136.28 25.3946ZM141.8 42.9258C142.065 42.2696 142.265 41.668 142.397 41.1211H142.679C143.061 41.5352 143.476 41.7422 143.921 41.7422C144.476 41.7422 144.956 41.4649 145.362 40.9102C145.776 40.3633 146.358 39.1485 147.108 37.2657C146.811 36.4297 146.511 35.6407 146.206 34.8985L144.343 30.2813C144.147 29.8047 143.858 29.125 143.476 28.2422C143.093 27.3516 142.862 26.8633 142.784 26.7774C142.714 26.6836 142.62 26.5977 142.503 26.5196C142.386 26.4414 142.069 26.3672 141.554 26.2969L141.46 26.2032V25.7344L141.565 25.6407C142.464 25.6953 143.386 25.7227 144.331 25.7227C145.44 25.7227 146.296 25.6953 146.897 25.6407L146.991 25.7344V26.2032L146.909 26.2969C146.823 26.3047 146.581 26.3242 146.183 26.3555C145.792 26.3789 145.546 26.4414 145.444 26.543C145.351 26.6367 145.304 26.7461 145.304 26.8711C145.304 27.0039 145.425 27.4375 145.667 28.1719C145.909 28.8985 146.143 29.543 146.37 30.1055L147.108 31.9336C147.593 33.1367 147.968 34.0235 148.233 34.5938L148.854 33.2227C149.073 32.7227 149.386 31.9649 149.792 30.9492L150.765 28.4649C151.015 27.8242 151.155 27.4258 151.186 27.2696C151.226 27.1133 151.245 27 151.245 26.9297C151.245 26.7578 151.183 26.6407 151.058 26.5782C150.933 26.5157 150.655 26.461 150.226 26.4141L149.733 26.3438L149.651 26.25V25.7344L149.745 25.6407C150.401 25.6953 151.179 25.7227 152.077 25.7227C152.897 25.7227 153.554 25.6953 154.046 25.6407L154.14 25.7344V26.25L154.046 26.3438C153.757 26.3516 153.526 26.3907 153.354 26.461C153.183 26.5313 153.018 26.6563 152.862 26.836C152.706 27.0157 152.425 27.5235 152.018 28.3594C151.612 29.1875 151.206 30.0469 150.8 30.9375L149.651 33.4571L146.944 39.7852C146.71 40.3321 146.417 40.918 146.065 41.543C145.722 42.168 145.296 42.6172 144.788 42.8907C144.288 43.1719 143.757 43.3125 143.194 43.3125C142.702 43.3125 142.237 43.1836 141.8 42.9258Z" fill="black"/>
<path d="M101.842 55.755L101.936 55.6613H102.51L102.604 55.755C102.643 56.755 102.694 57.3683 102.756 57.5949C102.827 57.8136 103.037 58.048 103.389 58.298C103.748 58.5402 104.221 58.7394 104.807 58.8957C105.401 59.0519 105.998 59.13 106.6 59.13C107.428 59.13 108.17 58.9777 108.827 58.673C109.491 58.3683 110.006 57.923 110.373 57.3371C110.741 56.7433 110.924 56.0793 110.924 55.3449C110.924 54.8293 110.834 54.38 110.655 53.9972C110.483 53.6144 110.237 53.3097 109.916 53.0832C109.604 52.8488 109.245 52.6769 108.838 52.5675C108.432 52.4503 107.827 52.3253 107.022 52.1925C106.241 52.0675 105.627 51.9543 105.182 51.8527C104.745 51.7511 104.307 51.5949 103.87 51.3839C103.432 51.173 103.065 50.9074 102.768 50.5871C102.479 50.2589 102.245 49.8605 102.065 49.3918C101.893 48.9152 101.807 48.4074 101.807 47.8683C101.807 46.4074 102.315 45.2121 103.33 44.2824C104.346 43.3449 105.709 42.8761 107.42 42.8761C108.1 42.8761 108.838 42.9621 109.635 43.1339C110.44 43.298 111.17 43.5441 111.827 43.8722L111.909 44.0128C111.737 44.7316 111.631 45.755 111.592 47.0832L111.487 47.1769H110.877L110.784 47.0949C110.768 46.1574 110.745 45.5675 110.713 45.3253C110.682 45.0832 110.327 44.7824 109.647 44.423C108.967 44.0636 108.229 43.8839 107.432 43.8839C106.768 43.8839 106.147 44.0168 105.569 44.2824C104.991 44.548 104.553 44.966 104.256 45.5363C103.959 46.1066 103.811 46.6886 103.811 47.2824C103.811 47.7433 103.901 48.1535 104.08 48.5128C104.26 48.8644 104.491 49.1457 104.772 49.3566C105.061 49.5597 105.393 49.7121 105.768 49.8136C106.151 49.9152 106.846 50.0402 107.854 50.1886C109.237 50.3839 110.241 50.6222 110.866 50.9035C111.498 51.1769 112.002 51.6144 112.377 52.216C112.76 52.8175 112.952 53.5441 112.952 54.3957C112.952 56.0597 112.272 57.4464 110.912 58.5558C109.561 59.6652 107.92 60.2199 105.991 60.2199C104.373 60.2199 102.955 59.9308 101.737 59.3527L101.666 59.2003C101.745 58.7082 101.803 57.5597 101.842 55.755ZM117.51 42.4308L117.733 42.5714C117.647 43.4699 117.604 45.2707 117.604 47.9738V50.8683C118.26 50.3293 118.87 49.7941 119.432 49.2628C119.596 49.1144 119.752 49.005 119.901 48.9347C120.049 48.8644 120.287 48.7902 120.616 48.7121C120.952 48.6339 121.295 48.5949 121.647 48.5949C122.241 48.5949 122.815 48.716 123.37 48.9582C123.932 49.2003 124.354 49.4894 124.635 49.8253C124.924 50.1535 125.123 50.5441 125.233 50.9972C125.342 51.4503 125.397 52.0089 125.397 52.673V54.7355C125.397 54.8683 125.416 55.841 125.455 57.6535C125.479 58.3957 125.561 58.8371 125.702 58.9777C125.85 59.1183 126.334 59.1886 127.155 59.1886L127.248 59.2824V59.7863L127.155 59.88C126.162 59.8175 125.491 59.7863 125.139 59.7863C124.959 59.7863 124.389 59.8175 123.428 59.88L123.287 59.7511C123.389 58.7355 123.44 57.4113 123.44 55.7785V54.2433C123.44 53.3214 123.416 52.6574 123.37 52.2511C123.33 51.8449 123.202 51.4777 122.983 51.1496C122.764 50.8136 122.471 50.5558 122.104 50.3761C121.745 50.1886 121.307 50.0949 120.791 50.0949C120.26 50.0949 119.815 50.1691 119.455 50.3175C119.104 50.4582 118.745 50.7003 118.377 51.0441C118.01 51.3878 117.787 51.6769 117.709 51.9113C117.639 52.1378 117.604 52.5793 117.604 53.2355V55.3214C117.604 55.4933 117.62 56.048 117.651 56.9855C117.682 57.9152 117.713 58.4582 117.745 58.6144C117.784 58.7707 117.838 58.8839 117.909 58.9543C117.979 59.0246 118.065 59.0714 118.166 59.0949C118.268 59.1105 118.69 59.1418 119.432 59.1886L119.537 59.2824V59.7746L119.444 59.88C118.467 59.8175 117.526 59.7863 116.62 59.7863C115.721 59.7863 114.784 59.8175 113.807 59.88L113.702 59.7746V59.2824L113.807 59.1886C114.565 59.1418 114.991 59.1066 115.084 59.0832C115.186 59.0597 115.272 59.0128 115.342 58.9425C115.42 58.8644 115.471 58.7511 115.495 58.6027C115.526 58.4464 115.557 57.9425 115.588 57.091C115.627 56.2316 115.647 55.5832 115.647 55.1457V49.0753L115.6 46.591C115.577 45.7238 115.549 45.1222 115.518 44.7863C115.495 44.4503 115.459 44.2511 115.412 44.1886C115.366 44.1261 115.284 44.0793 115.166 44.048C115.049 44.0168 114.577 44.0011 113.748 44.0011L113.643 43.8957V43.4035L113.737 43.298C115.229 43.1261 116.487 42.8371 117.51 42.4308ZM128.291 54.4191C128.291 53.4894 128.483 52.5949 128.866 51.7355C129.248 50.8683 129.912 50.1222 130.858 49.4972C131.811 48.8644 132.94 48.548 134.245 48.548C135.885 48.548 137.221 49.0675 138.252 50.1066C139.284 51.1378 139.799 52.466 139.799 54.091C139.799 55.88 139.205 57.3527 138.018 58.5089C136.838 59.6652 135.412 60.2433 133.741 60.2433C132.647 60.2433 131.67 59.9503 130.811 59.3644C129.952 58.7707 129.315 58.048 128.901 57.1964C128.495 56.3449 128.291 55.4191 128.291 54.4191ZM130.506 53.6105C130.506 54.7043 130.647 55.6847 130.928 56.5519C131.209 57.4113 131.655 58.1027 132.264 58.6261C132.873 59.1496 133.569 59.4113 134.35 59.4113C135.272 59.4113 136.034 59.048 136.635 58.3214C137.237 57.5871 137.537 56.4855 137.537 55.0168C137.537 53.3527 137.209 51.9894 136.553 50.9269C135.905 49.8644 134.967 49.3332 133.741 49.3332C132.725 49.3332 131.932 49.7003 131.362 50.4347C130.791 51.1691 130.506 52.2277 130.506 53.6105ZM144.932 48.4777L145.155 48.6183C145.077 49.5089 145.034 50.298 145.026 50.9855C146.088 50.0168 146.827 49.3761 147.241 49.0636C147.662 48.7511 148.385 48.5949 149.409 48.5949C150.049 48.5949 150.631 48.6847 151.155 48.8644C151.678 49.0363 152.162 49.3253 152.608 49.7316C153.053 50.13 153.405 50.6339 153.662 51.2433C153.92 51.8449 154.049 52.5441 154.049 53.341C154.049 53.9035 153.959 54.4738 153.78 55.0519C153.6 55.63 153.362 56.1652 153.065 56.6574C152.776 57.1496 152.541 57.4777 152.362 57.6418C152.19 57.798 151.83 58.0363 151.284 58.3566C150.791 58.6535 150.303 58.9738 149.819 59.3175C149.483 59.5597 149.248 59.716 149.116 59.7863C148.983 59.8566 148.76 59.9269 148.448 59.9972C148.135 60.0675 147.803 60.1027 147.452 60.1027C146.639 60.1027 145.83 59.8957 145.026 59.4816V61.9777C145.026 62.1496 145.041 62.7003 145.073 63.63C145.104 64.5675 145.135 65.1144 145.166 65.2707C145.205 65.4269 145.26 65.5402 145.33 65.6105C145.401 65.6808 145.487 65.7238 145.588 65.7394C145.69 65.7628 146.112 65.798 146.854 65.8449L146.959 65.9386V66.4308L146.866 66.5363C145.889 66.4738 144.952 66.4425 144.053 66.4425C143.155 66.4425 142.217 66.4738 141.241 66.5363L141.135 66.4308V65.9386L141.241 65.8449C141.991 65.798 142.416 65.7628 142.518 65.7394C142.62 65.716 142.705 65.6652 142.776 65.5871C142.854 65.5168 142.905 65.3996 142.928 65.2355C142.959 65.0714 142.991 64.548 143.022 63.6652C143.061 62.7824 143.08 62.1183 143.08 61.673V52.6964C143.08 52.2902 143.061 51.8214 143.022 51.2902C142.991 50.7511 142.963 50.4386 142.94 50.3527C142.916 50.2668 142.858 50.1964 142.764 50.1418C142.678 50.0871 142.479 50.0597 142.166 50.0597L141.182 50.048L141.077 49.9543V49.4503L141.17 49.3566C142.662 49.1769 143.916 48.8839 144.932 48.4777ZM145.026 57.466C145.385 57.8332 145.83 58.1535 146.362 58.4269C146.893 58.6925 147.479 58.8253 148.12 58.8253C148.877 58.8253 149.545 58.6339 150.123 58.2511C150.709 57.8683 151.162 57.3097 151.483 56.5753C151.803 55.8332 151.963 55.0128 151.963 54.1144C151.963 53.3878 151.819 52.7121 151.53 52.0871C151.248 51.4621 150.807 50.9699 150.205 50.6105C149.612 50.2511 148.979 50.0714 148.307 50.0714C147.893 50.0714 147.491 50.1457 147.1 50.2941C146.709 50.4347 146.342 50.6457 145.998 50.9269C145.662 51.2082 145.42 51.4777 145.272 51.7355C145.123 51.9855 145.045 52.1964 145.037 52.3683C145.03 52.5324 145.026 52.716 145.026 52.9191V57.466Z" fill="black"/>
</g>
<defs>
<clipPath id="clip0_106_2">
<rect width="158" height="89" fill="white"/>
</clipPath>
</defs>
</svg>
